<svg xmlns="http://www.w3.org/2000/svg" width="48" height="48" fill="none" viewBox="0 0 48 48"><path fill="#81B3D2" d="M0 0h48v48H0z"/><g clip-path="url(#a)"><path fill="#fff" fill-rule="evenodd" d="M35.5 18c.1-.6 0-1-.8-1H32c-.6 0-1 .3-1.1.7 0 0-1.3 3.2-3.2 5.3-.7.6-1 .8-1.3.8-.1 0-.4-.2-.4-.7v-5.2c0-.6-.2-.9-.7-.9h-4.1c-.5 0-.7.3-.7.6 0 .6 1 .8 1 2.5V24c0 .8-.1 1-.5 1-.9 0-3-3.2-4.3-6.9-.3-.7-.5-1-1.2-1H13c-.8 0-.9.3-.9.7 0 .7.9 4.1 4.1 8.6 2.2 3 5.3 4.7 8 4.7 1.7 0 2-.4 2-1v-2.3c0-.8 0-.9.6-.9.4 0 1 .2 2.6 1.7 1.8 1.7 2.1 2.5 3.1 2.5H35c.8 0 1.2-.4 1-1.1-.3-.7-1.1-1.8-2.3-3L32 25c-.4-.5-.3-.7 0-1.1 0 0 3.2-4.4 3.5-6Z" clip-rule="evenodd"/></g><defs><clipPath id="a"><path fill="#fff" d="M12 12h24v24H12z"/></clipPath></defs></svg>