<svg xmlns="http://www.w3.org/2000/svg" width="40" height="36" fill="none" viewBox="0 0 40 36"><path fill="#81B3D2" d="M37.7 23.9H2.3C1 23.9 0 24.9 0 26v1.8c0 1.2 1 2.1 2.3 2.1h.5v.5c0 2.8 2.3 5 5.2 5h24c3 0 5.2-2.2 5.2-5V30h.5c1.3 0 2.3-1 2.3-2.1V26c0-1.1-1-2.1-2.3-2.1Zm-2 6.5c0 2-1.6 3.5-3.6 3.5H7.9c-2 0-3.6-1.5-3.6-3.5V30h31.4v.5Zm2.7-2.6c0 .3-.3.6-.7.6H2.3a.7.7 0 0 1-.7-.6V26c0-.3.3-.6.7-.6h35.5c.4 0 .7.3.7.6v1.8ZM8.5 19.7l2.8 2 3-2 2.8 2 2.9-2 2.8 2 3-2 2.8 2 2.9-2 2.9 2 3.3-2.3-.9-1.2-2.4 1.6-2.9-2-2.9 2-2.9-2-2.9 2-2.8-2-2.9 2-2.9-2-2.9 2-2.8-2-2.9 2-2.4-1.6-1 1.2 3.4 2.4 2.9-2ZM37.2 16.3v-1.5C37 6.8 29.2.6 20 .6 10.7.6 3.1 6.9 2.7 14.8v1.5h34.5ZM20 2.1c8.4 0 15.3 5.6 15.6 12.7H4.3C4.7 7.8 11.6 2 20 2Z"/><path fill="#81B3D2" d="M20 9.2c.6 0 1-.5 1-1 0-.6-.4-1-1-1a1 1 0 0 0-1 1c0 .5.4 1 1 1ZM15.8 6.7c.6 0 1-.5 1-1 0-.6-.4-1-1-1a1 1 0 0 0-1 1c0 .5.4 1 1 1ZM24.2 6.7c.6 0 1-.5 1-1 0-.6-.4-1-1-1a1 1 0 0 0-1 1c0 .5.4 1 1 1Z"/></svg>