<svg xmlns="http://www.w3.org/2000/svg" width="40" height="38" fill="none" viewBox="0 0 40 38"><path fill="#81B3D2" d="M15.9 33.8h8.4V21.6h-8.4v12.2Zm6.8-1.5h-5.3v-9.2h5.3v9.2Z"/><path fill="#81B3D2" d="m38.4 20.6 1.1-1-5.2-5V.7h-7.2v6.7L20 .5.5 19.7l1.1 1 4-3.9V36h-2v1.5H37V36h-2.7V16.7l4.1 4ZM28.6 2.3h4.2V13l-4.2-4V2.3ZM32.8 36H7.2V15.2L20 2.7l12.8 12.5v20.7Z"/><path fill="#81B3D2" d="M16 14.4a4 4 0 0 0 4 4 4 4 0 0 0 4.2-4 4 4 0 0 0-4.1-3.9 4 4 0 0 0-4 4Zm4-2.5c1.5 0 2.7 1.1 2.7 2.5S21.5 17 20 17a2.6 2.6 0 0 1-2.6-2.6c0-1.4 1.2-2.5 2.6-2.5ZM10.9 21.6H9.3v2H11v-2ZM14 21.6h-1.6v2H14v-2ZM10.9 24.7H9.3v2H11v-2ZM14 24.7h-1.6v2H14v-2ZM27.5 21.6H26v2h1.5v-2ZM30.7 21.6H29v2h1.6v-2ZM27.5 24.7H26v2h1.5v-2ZM30.7 24.7H29v2h1.6v-2Z"/></svg>